<?xml version="1.0" ?><!DOCTYPE svg  PUBLIC '-//W3C//DTD SVG 1.1//EN'  'http://www.w3.org/Graphics/SVG/1.1/DTD/svg11.dtd'><svg enable-background="new 0 0 24 24" height="24px" id="Layer_1" version="1.1" viewBox="0 0 24 24" width="24px" xml:space="preserve" xmlns="http://www.w3.org/2000/svg" xmlns:xlink="http://www.w3.org/1999/xlink"><path d="M19.3,2l-0.8,3.8c0,0.2-0.2,0.4-0.4,0.4h-6.7c-1,0-1.9,0.8-1.9,1.9v0.8c0,1,0.8,1.9,1.9,1.9h5.7c0.1,0,0.2,0.1,0.3,0.1  c0,0.1,0.1,0.2,0.1,0.3c-0.1,0.6-0.7,3.5-0.8,3.9c0,0.1-0.2,0.3-0.4,0.3h-2.8c0,0,0,0,0,0H8.8c-0.3,0-0.5,0.2-0.5,0.5  c0,0.3,0.2,0.5,0.5,0.5h0.7c-0.6,0.7-3.4,4.3-4.8,6.1V2c0-0.2,0.2-0.4,0.4-0.4H19c0.1,0,0.2,0.1,0.3,0.1C19.3,1.7,19.4,1.9,19.3,2  C19.3,2,19.3,2,19.3,2z"/></svg>